<?xml version="1.0" encoding="UTF-8"?>
<svg width="672px" height="547px" viewBox="0 0 672 547" version="1.1" xmlns="http://www.w3.org/2000/svg" xmlns:xlink="http://www.w3.org/1999/xlink">
    <!-- Generator: Sketch 45.1 (43504) - http://www.bohemiancoding.com/sketch -->
    <title>Group</title>
    <desc>Created with Sketch.</desc>
    <defs></defs>
    <g id="Page-1" stroke="none" stroke-width="1" fill="none" fill-rule="evenodd">
        <g id="About" transform="translate(-768.000000, 0.000000)" stroke="#009BD0" stroke-width="12">
            <g id="Group" transform="translate(774.000000, -39.000000)">
                <path d="M308.148904,424.354596 C308.148904,510.260628 239.209659,579.901627 154.168181,579.901627 C69.1267043,579.901627 0.187458554,510.260628 0.187458554,424.354596 C0.187458554,338.448563 69.1267043,268.807565 154.168181,268.807565 C239.209659,268.807565 308.148904,338.448563 308.148904,424.354596 Z" id="Stroke-7"></path>
                <path d="M717.477331,156.407811 C717.477331,242.313844 648.538085,311.954842 563.496608,311.954842 C478.455131,311.954842 409.515885,242.313844 409.515885,156.407811 C409.515885,70.5017782 478.455131,0.860779987 563.496608,0.860779987 C648.538085,0.860779987 717.477331,70.5017782 717.477331,156.407811 Z" id="Stroke-9"></path>
                <path d="M47.731948,311.954842 L457.060288,44.0077981" id="Stroke-21"></path>
                <path d="M679.916588,258.21559 L246.818988,548.598564" id="Stroke-31"></path>
            </g>
        </g>
    </g>
</svg>