<svg xmlns="http://www.w3.org/2000/svg" xmlns:xlink="http://www.w3.org/1999/xlink" width="201" height="122" viewBox="0 0 201 122">
  <defs>
    <polygon id="contactenvelopegrey-a" points="100.5 121.86 0 121.86 0 0 100.5 0 200.999 0 200.999 121.86"/>
  </defs>
  <g fill="none" fill-rule="evenodd">
    <mask id="contactenvelopegrey-b" fill="#fff">
      <use xlink:href="#contactenvelopegrey-a"/>
    </mask>
    <path fill="#868788" fill-rule="nonzero" d="M133.808436,75.2155068 L180.513857,111.355082 L20.3531483,111.574571 L67.34304,75.2155068 C69.5894942,73.4768676 69.9984733,70.2508311 68.2561942,68.0085936 C66.5136358,65.7674703 63.2803275,65.359411 61.033315,67.0977717 L10.4273775,106.255037 L10.3017525,15.1956849 L97.5887942,75.3823516 C98.4698442,75.9898447 99.4924317,76.2931735 100.515577,76.2931735 C101.542911,76.2931735 102.571082,75.9862237 103.453807,75.3739954 L190.571673,14.9497352 L190.70344,106.240553 L140.117602,67.0980502 C137.872265,65.359968 134.637561,65.7677489 132.895282,68.0091507 C131.152723,70.250274 131.561423,73.4771461 133.808436,75.2155068 L133.808436,75.2155068 Z M179.255094,10.2878311 L100.507761,64.9073425 L21.6074442,10.5039772 L179.255094,10.2878311 Z M200.86064,10.2580274 C200.852544,4.59839726 196.235407,0 190.564415,0 L190.551294,0 L10.2816525,0.247063927 C7.53158167,0.250684932 4.94733583,1.32278082 3.00517333,3.26558904 C1.06356917,5.2086758 -0.00340583333,7.79045205 -5.58333335e-05,10.5335023 L0.139248333,111.601868 C0.1428775,114.345753 1.21739,116.924187 3.1645775,118.861982 C5.10813583,120.796155 7.68931083,121.860452 10.4346358,121.860452 L10.448315,121.860452 L190.717677,121.613388 C196.393415,121.605311 201.005807,116.991594 200.999107,111.32695 L200.86064,10.2580274 Z" mask="url(#contactenvelopegrey-b)"/>
  </g>
</svg>
