<?xml version="1.0" encoding="UTF-8"?>
<svg width="672px" height="547px" viewBox="0 0 672 547" version="1.1" xmlns="http://www.w3.org/2000/svg" xmlns:xlink="http://www.w3.org/1999/xlink">
    <!-- Generator: Sketch 45.1 (43504) - http://www.bohemiancoding.com/sketch -->
    <title>Group</title>
    <desc>Created with Sketch.</desc>
    <defs></defs>
    <g id="Page-1" stroke="none" stroke-width="1" fill="none" fill-rule="evenodd">
        <g id="Landing-Page" transform="translate(-768.000000, 0.000000)" stroke="#009BD0" stroke-width="12">
            <g id="Group" transform="translate(774.000000, -38.861736)">
                <path d="M717.477331,156.269547 C717.477331,242.17558 648.538085,311.816578 563.496608,311.816578 C478.455131,311.816578 409.515885,242.17558 409.515885,156.269547 C409.515885,70.3635142 478.455131,0.722515959 563.496608,0.722515959 C648.538085,0.722515959 717.477331,70.3635142 717.477331,156.269547 Z" id="Stroke-9"></path>
                <path d="M308.148904,424.216332 C308.148904,510.122364 239.209659,579.763363 154.168181,579.763363 C69.1267043,579.763363 0.187458554,510.122364 0.187458554,424.216332 C0.187458554,338.310299 69.1267043,268.669301 154.168181,268.669301 C239.209659,268.669301 308.148904,338.310299 308.148904,424.216332 Z" id="Stroke-7"></path>
                <path d="M0.187372048,424.216332 L409.515712,156.269288" id="Stroke-11"></path>
                <path d="M154.168181,268.669301 L563.496521,0.722256714" id="Stroke-13"></path>
                <path d="M15.4913258,491.895795 L426.003068,226.354546" id="Stroke-15"></path>
                <path d="M457.060374,268.669301 L51.128261,539.797281" id="Stroke-17"></path>
                <path d="M107.662024,571.561109 L511.256744,302.689424" id="Stroke-19"></path>
                <path d="M47.731948,311.816578 L457.060288,43.8695341" id="Stroke-21"></path>
                <path d="M633.103161,17.4916957 L220.74711,279.837318" id="Stroke-23"></path>
                <path d="M690.939964,68.9522706 L281.384979,335.813078" id="Stroke-25"></path>
                <path d="M717.477331,156.269547 L308.148991,424.216591" id="Stroke-27"></path>
                <path d="M154.168181,579.763363 L563.496521,311.816319" id="Stroke-29"></path>
                <path d="M679.916588,258.077326 L246.818988,548.4603" id="Stroke-31"></path>
            </g>
        </g>
    </g>
</svg>