<?xml version="1.0" encoding="UTF-8"?>
<svg width="553px" height="1024px" viewBox="0 0 553 1024" version="1.1" xmlns="http://www.w3.org/2000/svg" xmlns:xlink="http://www.w3.org/1999/xlink">
    <!-- Generator: Sketch 45.1 (43504) - http://www.bohemiancoding.com/sketch -->
    <title>Group 2</title>
    <desc>Created with Sketch.</desc>
    <defs>
        <rect id="path-1" x="0" y="0" width="616.305949" height="1151.88663"></rect>
    </defs>
    <g id="Page-1" stroke="none" stroke-width="1" fill="none" fill-rule="evenodd">
        <g id="Page-Projects">
            <g id="Group-2">
                <g transform="translate(-77.000000, -58.000000)">
                    <rect id="Rectangle" fill="#D00A1D" x="86.5977337" y="65.2435784" width="616.305949" height="1151.88663"></rect>
                    <g id="Group">
                        <g id="Cubes">
                            <g id="Page-1">
                                <polygon id="Fill-1" fill="#CF0A1D" points="106.469388 1021.31437 665.141227 1021.31437 665.141227 66.161163 106.469388 66.161163"></polygon>
                                <polygon id="Fill-57" fill="#F5A4AD" points="159.645548 868.04102 80.5514768 913.7168 1.45740557 868.04102 1.45740557 776.688576 80.5514768 731.012796 159.645548 776.688576"></polygon>
                                <polygon id="Stroke-58" stroke="#CF0A1D" stroke-width="10.775" points="159.645548 868.04102 80.5514768 913.7168 1.45740557 868.04102 1.45740557 776.688576 80.5514768 731.012796 159.645548 776.688576"></polygon>
                                <g id="Group-62" transform="translate(80.461024, 776.238858)">
                                    <path d="M0.0903639198,45.6057354 L79.1844352,0.449983287" id="Fill-60" fill="#F5A4AD"></path>
                                    <path d="M0.0903639198,45.6057354 L79.1844352,0.449983287" id="Stroke-61" stroke="#CF0A1D" stroke-width="10.775"></path>
                                </g>
                                <path d="M80.5513884,821.844593 L1.45731715,776.688841" id="Fill-63" fill="#F5A4AD"></path>
                                <path d="M80.5513884,821.844593 L1.45731715,776.688841" id="Stroke-64" stroke="#CF0A1D" stroke-width="10.775"></path>
                                <path d="M80.5512116,913.716977 L80.5512116,821.844505 L80.5512116,913.716977 Z" id="Fill-66" fill="#F5A4AD"></path>
                                <path d="M80.5513884,913.717154 L80.5513884,821.844682" id="Stroke-67" stroke="#CF0A1D" stroke-width="10.775"></path>
                                <polygon id="Fill-68" fill="#F5A4AD" points="318.218577 868.04102 239.124506 913.7168 160.030435 868.04102 160.030435 776.688576 239.124506 731.012796 318.218577 776.688576"></polygon>
                                <polygon id="Stroke-69" stroke="#CF0A1D" stroke-width="10.775" points="318.218577 868.04102 239.124506 913.7168 160.030435 868.04102 160.030435 776.688576 239.124506 731.012796 318.218577 776.688576"></polygon>
                                <g id="Group-72" transform="translate(238.730512, 776.238858)">
                                    <path d="M0.393993764,45.6057354 L79.488065,0.449983287" id="Fill-70" fill="#F5A4AD"></path>
                                    <path d="M0.393993764,45.6057354 L79.488065,0.449983287" id="Stroke-71" stroke="#CF0A1D" stroke-width="10.775"></path>
                                </g>
                                <g id="Group-75" transform="translate(159.153675, 776.238858)">
                                    <path d="M79.9708312,45.6057354 L0.876759911,0.449983287" id="Fill-73" fill="#F5A4AD"></path>
                                    <path d="M79.9708312,45.6057354 L0.876759911,0.449983287" id="Stroke-74" stroke="#CF0A1D" stroke-width="10.775"></path>
                                </g>
                                <path d="M239.124771,913.716977 L239.124771,821.844505 L239.124771,913.716977 Z" id="Fill-76" fill="#F5A4AD"></path>
                                <path d="M239.124506,913.717154 L239.124506,821.844682" id="Stroke-77" stroke="#CF0A1D" stroke-width="10.775"></path>
                                <polygon id="Fill-78" fill="#F5A4AD" points="476.791695 868.04102 397.697624 913.7168 318.603552 868.04102 318.603552 776.688576 397.697624 731.012796 476.791695 776.688576"></polygon>
                                <polygon id="Stroke-79" stroke="#CF0A1D" stroke-width="10.775" points="476.791695 868.04102 397.697624 913.7168 318.603552 868.04102 318.603552 776.688576 397.697624 731.012796 476.791695 776.688576"></polygon>
                                <g id="Group-82" transform="translate(397.000000, 776.238858)">
                                    <path d="M0.697535189,45.6057354 L79.7916065,0.449983287" id="Fill-80" fill="#F5A4AD"></path>
                                    <path d="M0.697535189,45.6057354 L79.7916065,0.449983287" id="Stroke-81" stroke="#CF0A1D" stroke-width="10.775"></path>
                                </g>
                                <g id="Group-85" transform="translate(318.307350, 776.238858)">
                                    <path d="M79.3901855,45.6057354 L0.296114254,0.449983287" id="Fill-83" fill="#F5A4AD"></path>
                                    <path d="M79.3901855,45.6057354 L0.296114254,0.449983287" id="Stroke-84" stroke="#CF0A1D" stroke-width="10.775"></path>
                                </g>
                                <path d="M397.697535,913.716977 L397.697535,821.844505 L397.697535,913.716977 Z" id="Fill-86" fill="#F5A4AD"></path>
                                <path d="M397.697535,913.717154 L397.697535,821.844682" id="Stroke-87" stroke="#CF0A1D" stroke-width="10.775"></path>
                                <polygon id="Fill-88" fill="#F5A4AD" points="634.621565 868.04102 555.527494 913.7168 476.433422 868.04102 476.433422 776.688576 555.527494 731.012796 634.621565 776.688576"></polygon>
                                <polygon id="Stroke-89" stroke="#CF0A1D" stroke-width="10.775" points="634.621565 868.04102 555.527494 913.7168 476.433422 868.04102 476.433422 776.688576 555.527494 731.012796 634.621565 776.688576"></polygon>
                                <g id="Group-92" transform="translate(555.269488, 776.238858)">
                                    <path d="M0.258005791,45.6057354 L79.3520771,0.449983287" id="Fill-90" fill="#F5A4AD"></path>
                                    <path d="M0.258005791,45.6057354 L79.3520771,0.449983287" id="Stroke-91" stroke="#CF0A1D" stroke-width="10.775"></path>
                                </g>
                                <g id="Group-95" transform="translate(475.692650, 776.238858)">
                                    <path d="M79.8348432,45.6057354 L0.740771938,0.449983287" id="Fill-93" fill="#F5A4AD"></path>
                                    <path d="M79.8348432,45.6057354 L0.740771938,0.449983287" id="Stroke-94" stroke="#CF0A1D" stroke-width="10.775"></path>
                                </g>
                                <path d="M555.527847,913.716977 L555.527847,821.844505 L555.527847,913.716977 Z" id="Fill-96" fill="#F5A4AD"></path>
                                <path d="M555.527494,913.717154 L555.527494,821.844682" id="Stroke-97" stroke="#CF0A1D" stroke-width="10.775"></path>
                                <polygon id="Fill-112" fill="#F5A4AD" points="159.274013 685.336751 80.1799414 731.012531 1.08587016 685.336751 1.08587016 593.984306 80.1799414 548.308526 159.274013 593.984306"></polygon>
                                <polygon id="Stroke-113" stroke="#CF0A1D" stroke-width="10.775" points="159.274013 685.336751 80.1799414 731.012531 1.08587016 685.336751 1.08587016 593.984306 80.1799414 548.308526 159.274013 593.984306"></polygon>
                                <g id="Group-117" transform="translate(79.576837, 593.167827)">
                                    <path d="M0.60301559,45.9724081 L79.6970869,0.816655989" id="Fill-115" fill="#F5A4AD"></path>
                                    <path d="M0.60301559,45.9724081 L79.6970869,0.816655989" id="Stroke-116" stroke="#CF0A1D" stroke-width="10.775"></path>
                                </g>
                                <path d="M80.179853,639.140235 L1.08578174,593.984483" id="Fill-118" fill="#F5A4AD"></path>
                                <path d="M80.179853,639.140235 L1.08578174,593.984483" id="Stroke-119" stroke="#CF0A1D" stroke-width="10.775"></path>
                                <path d="M80.1795878,731.012884 L80.1795878,639.140412 L80.1795878,731.012884 Z" id="Fill-121" fill="#F5A4AD"></path>
                                <path d="M80.179853,731.012796 L80.179853,639.140324" id="Stroke-122" stroke="#CF0A1D" stroke-width="10.775"></path>
                                <polygon id="Fill-123" fill="#F5A4AD" points="317.847042 685.336751 238.752971 731.012531 159.658899 685.336751 159.658899 593.984306 238.752971 548.308526 317.847042 593.984306"></polygon>
                                <polygon id="Stroke-124" stroke="#CF0A1D" stroke-width="10.775" points="317.847042 685.336751 238.752971 731.012531 159.658899 685.336751 159.658899 593.984306 238.752971 548.308526 317.847042 593.984306"></polygon>
                                <g id="Group-127" transform="translate(238.730512, 593.167827)">
                                    <path d="M0.0224583519,45.9724081 L79.1165296,0.816655989" id="Fill-125" fill="#F5A4AD"></path>
                                    <path d="M0.0224583519,45.9724081 L79.1165296,0.816655989" id="Stroke-126" stroke="#CF0A1D" stroke-width="10.775"></path>
                                </g>
                                <g id="Group-130" transform="translate(159.153675, 593.167827)">
                                    <path d="M79.5992958,45.9724081 L0.505224499,0.816655989" id="Fill-128" fill="#F5A4AD"></path>
                                    <path d="M79.5992958,45.9724081 L0.505224499,0.816655989" id="Stroke-129" stroke="#CF0A1D" stroke-width="10.775"></path>
                                </g>
                                <path d="M238.753147,731.012884 L238.753147,639.140412 L238.753147,731.012884 Z" id="Fill-131" fill="#F5A4AD"></path>
                                <path d="M238.752971,731.012796 L238.752971,639.140324" id="Stroke-132" stroke="#CF0A1D" stroke-width="10.775"></path>
                                <polygon id="Fill-133" fill="#F5A4AD" points="476.420159 685.336751 397.326088 731.012531 318.232017 685.336751 318.232017 593.984306 397.326088 548.308526 476.420159 593.984306"></polygon>
                                <polygon id="Stroke-134" stroke="#CF0A1D" stroke-width="10.775" points="476.420159 685.336751 397.326088 731.012531 318.232017 685.336751 318.232017 593.984306 397.326088 548.308526 476.420159 593.984306"></polygon>
                                <g id="Group-137" transform="translate(397.000000, 593.167827)">
                                    <path d="M0.325999777,45.9724081 L79.420071,0.816655989" id="Fill-135" fill="#F5A4AD"></path>
                                    <path d="M0.325999777,45.9724081 L79.420071,0.816655989" id="Stroke-136" stroke="#CF0A1D" stroke-width="10.775"></path>
                                </g>
                                <g id="Group-140" transform="translate(317.423163, 593.167827)">
                                    <path d="M79.9028372,45.9724081 L0.808765924,0.816655989" id="Fill-138" fill="#F5A4AD"></path>
                                    <path d="M79.9028372,45.9724081 L0.808765924,0.816655989" id="Stroke-139" stroke="#CF0A1D" stroke-width="10.775"></path>
                                </g>
                                <path d="M397.325911,731.012884 L397.325911,639.140412 L397.325911,731.012884 Z" id="Fill-141" fill="#F5A4AD"></path>
                                <path d="M397.326,731.012796 L397.326,639.140324" id="Stroke-142" stroke="#CF0A1D" stroke-width="10.775"></path>
                                <polygon id="Fill-143" fill="#F5A4AD" points="634.250118 685.336751 555.156047 731.012531 476.061975 685.336751 476.061975 593.984306 555.156047 548.308526 634.250118 593.984306"></polygon>
                                <polygon id="Stroke-144" stroke="#CF0A1D" stroke-width="10.775" points="634.250118 685.336751 555.156047 731.012531 476.061975 685.336751 476.061975 593.984306 555.156047 548.308526 634.250118 593.984306"></polygon>
                                <g id="Group-147" transform="translate(554.385301, 593.167827)">
                                    <path d="M0.770657461,45.9724081 L79.8647287,0.816655989" id="Fill-145" fill="#F5A4AD"></path>
                                    <path d="M0.770657461,45.9724081 L79.8647287,0.816655989" id="Stroke-146" stroke="#CF0A1D" stroke-width="10.775"></path>
                                </g>
                                <g id="Group-150" transform="translate(475.692650, 593.167827)">
                                    <path d="M79.4633078,45.9724081 L0.369236526,0.816655989" id="Fill-148" fill="#F5A4AD"></path>
                                    <path d="M79.4633078,45.9724081 L0.369236526,0.816655989" id="Stroke-149" stroke="#CF0A1D" stroke-width="10.775"></path>
                                </g>
                                <path d="M555.156223,731.012884 L555.156223,639.140412 L555.156223,731.012884 Z" id="Fill-151" fill="#F5A4AD"></path>
                                <path d="M555.155958,731.012796 L555.155958,639.140324" id="Stroke-152" stroke="#CF0A1D" stroke-width="10.775"></path>
                                <polygon id="Fill-167" fill="#F5A4AD" points="159.273924 502.632481 80.179853 548.308261 1.08578174 502.632481 1.08578174 411.280037 80.179853 365.604257 159.273924 411.280037"></polygon>
                                <polygon id="Stroke-168" stroke="#CF0A1D" stroke-width="10.775" points="159.273924 502.632481 80.179853 548.308261 1.08578174 502.632481 1.08578174 411.280037 80.179853 365.604257 159.273924 411.280037"></polygon>
                                <g id="Group-172" transform="translate(79.576837, 410.981198)">
                                    <path d="M0.60301559,45.4547681 L79.6970869,0.299016017" id="Fill-170" fill="#F5A4AD"></path>
                                    <path d="M0.60301559,45.4547681 L79.6970869,0.299016017" id="Stroke-171" stroke="#CF0A1D" stroke-width="10.775"></path>
                                </g>
                                <path d="M80.179853,456.435966 L1.08578174,411.280214" id="Fill-173" fill="#F5A4AD"></path>
                                <path d="M80.179853,456.435966 L1.08578174,411.280214" id="Stroke-174" stroke="#CF0A1D" stroke-width="10.775"></path>
                                <path d="M80.1795878,548.308792 L80.1795878,456.435435 L80.1795878,548.308792 Z" id="Fill-176" fill="#F5A4AD"></path>
                                <path d="M80.179853,548.308526 L80.179853,456.436054" id="Stroke-177" stroke="#CF0A1D" stroke-width="10.775"></path>
                                <polygon id="Fill-178" fill="#F5A4AD" points="317.847042 502.632481 238.752971 548.308261 159.658899 502.632481 159.658899 411.280037 238.752971 365.604257 317.847042 411.280037"></polygon>
                                <polygon id="Stroke-179" stroke="#CF0A1D" stroke-width="10.775" points="317.847042 502.632481 238.752971 548.308261 159.658899 502.632481 159.658899 411.280037 238.752971 365.604257 317.847042 411.280037"></polygon>
                                <g id="Group-182" transform="translate(238.730512, 410.981198)">
                                    <path d="M0.0223699332,45.4547681 L79.1164412,0.299016017" id="Fill-180" fill="#F5A4AD"></path>
                                    <path d="M0.0223699332,45.4547681 L79.1164412,0.299016017" id="Stroke-181" stroke="#CF0A1D" stroke-width="10.775"></path>
                                </g>
                                <g id="Group-185" transform="translate(159.153675, 410.981198)">
                                    <path d="M79.5992073,45.4547681 L0.50513608,0.299016017" id="Fill-183" fill="#F5A4AD"></path>
                                    <path d="M79.5992073,45.4547681 L0.50513608,0.299016017" id="Stroke-184" stroke="#CF0A1D" stroke-width="10.775"></path>
                                </g>
                                <path d="M238.753147,548.308792 L238.753147,456.435435 L238.753147,548.308792 Z" id="Fill-186" fill="#F5A4AD"></path>
                                <path d="M238.752882,548.308526 L238.752882,456.436054" id="Stroke-187" stroke="#CF0A1D" stroke-width="10.775"></path>
                                <polygon id="Fill-188" fill="#F5A4AD" points="476.420159 502.632481 397.326088 548.308261 318.232017 502.632481 318.232017 411.280037 397.326088 365.604257 476.420159 411.280037"></polygon>
                                <polygon id="Stroke-189" stroke="#CF0A1D" stroke-width="10.775" points="476.420159 502.632481 397.326088 548.308261 318.232017 502.632481 318.232017 411.280037 397.326088 365.604257 476.420159 411.280037"></polygon>
                                <g id="Group-192" transform="translate(397.000000, 410.981198)">
                                    <path d="M0.325999777,45.4547681 L79.420071,0.299016017" id="Fill-190" fill="#F5A4AD"></path>
                                    <path d="M0.325999777,45.4547681 L79.420071,0.299016017" id="Stroke-191" stroke="#CF0A1D" stroke-width="10.775"></path>
                                </g>
                                <g id="Group-195" transform="translate(317.423163, 410.981198)">
                                    <path d="M79.9028372,45.4547681 L0.808765924,0.299016017" id="Fill-193" fill="#F5A4AD"></path>
                                    <path d="M79.9028372,45.4547681 L0.808765924,0.299016017" id="Stroke-194" stroke="#CF0A1D" stroke-width="10.775"></path>
                                </g>
                                <path d="M397.325911,548.308792 L397.325911,456.435435 L397.325911,548.308792 Z" id="Fill-196" fill="#F5A4AD"></path>
                                <path d="M397.326,548.308526 L397.326,456.436054" id="Stroke-197" stroke="#CF0A1D" stroke-width="10.775"></path>
                                <polygon id="Fill-198" fill="#F5A4AD" points="634.250029 502.632481 555.155958 548.308261 476.061887 502.632481 476.061887 411.280037 555.155958 365.604257 634.250029 411.280037"></polygon>
                                <polygon id="Stroke-199" stroke="#CF0A1D" stroke-width="10.775" points="634.250029 502.632481 555.155958 548.308261 476.061887 502.632481 476.061887 411.280037 555.155958 365.604257 634.250029 411.280037"></polygon>
                                <g id="Group-202" transform="translate(554.385301, 410.981198)">
                                    <path d="M0.770657461,45.4547681 L79.8647287,0.299016017" id="Fill-200" fill="#F5A4AD"></path>
                                    <path d="M0.770657461,45.4547681 L79.8647287,0.299016017" id="Stroke-201" stroke="#CF0A1D" stroke-width="10.775"></path>
                                </g>
                                <g id="Group-205" transform="translate(475.692650, 410.981198)">
                                    <path d="M79.4633078,45.4547681 L0.369236526,0.299016017" id="Fill-203" fill="#F5A4AD"></path>
                                    <path d="M79.4633078,45.4547681 L0.369236526,0.299016017" id="Stroke-204" stroke="#CF0A1D" stroke-width="10.775"></path>
                                </g>
                                <path d="M555.156223,548.308792 L555.156223,456.435435 L555.156223,548.308792 Z" id="Fill-206" fill="#F5A4AD"></path>
                                <path d="M555.155958,548.308526 L555.155958,456.436054" id="Stroke-207" stroke="#CF0A1D" stroke-width="10.775"></path>
                                <polygon id="Fill-222" fill="#F5A4AD" points="158.902389 319.9283 79.8083176 365.60408 0.714246325 319.9283 0.714246325 228.575856 79.8083176 182.900076 158.902389 228.575856"></polygon>
                                <polygon id="Stroke-223" stroke="#CF0A1D" stroke-width="10.775" points="158.902389 319.9283 79.8083176 365.60408 0.714246325 319.9283 0.714246325 228.575856 79.8083176 182.900076 158.902389 228.575856"></polygon>
                                <g id="Group-227" transform="translate(79.576837, 227.910167)">
                                    <path d="M0.231391759,45.8215292 L79.325463,0.665777159" id="Fill-225" fill="#F5A4AD"></path>
                                    <path d="M0.231391759,45.8215292 L79.325463,0.665777159" id="Stroke-226" stroke="#CF0A1D" stroke-width="10.775"></path>
                                </g>
                                <path d="M79.8082292,273.731696 L0.714157906,228.575944" id="Fill-228" fill="#F5A4AD"></path>
                                <path d="M79.8082292,273.731696 L0.714157906,228.575944" id="Stroke-229" stroke="#CF0A1D" stroke-width="10.775"></path>
                                <path d="M79.8079639,365.603903 L79.8079639,273.731431 L79.8079639,365.603903 Z" id="Fill-231" fill="#F5A4AD"></path>
                                <path d="M79.8082292,365.604257 L79.8082292,273.731785" id="Stroke-232" stroke="#CF0A1D" stroke-width="10.775"></path>
                                <polygon id="Fill-233" fill="#F5A4AD" points="317.475418 319.9283 238.381347 365.60408 159.287276 319.9283 159.287276 228.575856 238.381347 182.900076 317.475418 228.575856"></polygon>
                                <polygon id="Stroke-234" stroke="#CF0A1D" stroke-width="10.775" points="317.475418 319.9283 238.381347 365.60408 159.287276 319.9283 159.287276 228.575856 238.381347 182.900076 317.475418 228.575856"></polygon>
                                <g id="Group-237" transform="translate(237.846325, 227.910167)">
                                    <path d="M0.535021604,45.8215292 L79.6290929,0.665777159" id="Fill-235" fill="#F5A4AD"></path>
                                    <path d="M0.535021604,45.8215292 L79.6290929,0.665777159" id="Stroke-236" stroke="#CF0A1D" stroke-width="10.775"></path>
                                </g>
                                <g id="Group-240" transform="translate(159.153675, 227.910167)">
                                    <path d="M79.2276719,45.8215292 L0.133600668,0.665777159" id="Fill-238" fill="#F5A4AD"></path>
                                    <path d="M79.2276719,45.8215292 L0.133600668,0.665777159" id="Stroke-239" stroke="#CF0A1D" stroke-width="10.775"></path>
                                </g>
                                <path d="M238.381524,365.603903 L238.381524,273.731431 L238.381524,365.603903 Z" id="Fill-241" fill="#F5A4AD"></path>
                                <path d="M238.381347,365.604257 L238.381347,273.731785" id="Stroke-242" stroke="#CF0A1D" stroke-width="10.775"></path>
                                <polygon id="Fill-243" fill="#F5A4AD" points="476.048536 319.9283 396.954464 365.60408 317.860393 319.9283 317.860393 228.575856 396.954464 182.900076 476.048536 228.575856"></polygon>
                                <polygon id="Stroke-244" stroke="#CF0A1D" stroke-width="10.775" points="476.048536 319.9283 396.954464 365.60408 317.860393 319.9283 317.860393 228.575856 396.954464 182.900076 476.048536 228.575856"></polygon>
                                <g id="Group-247" transform="translate(396.115813, 227.910167)">
                                    <path d="M0.838563029,45.8215292 L79.9326343,0.665777159" id="Fill-245" fill="#F5A4AD"></path>
                                    <path d="M0.838563029,45.8215292 L79.9326343,0.665777159" id="Stroke-246" stroke="#CF0A1D" stroke-width="10.775"></path>
                                </g>
                                <g id="Group-250" transform="translate(317.423163, 227.910167)">
                                    <path d="M79.5312134,45.8215292 L0.437142094,0.665777159" id="Fill-248" fill="#F5A4AD"></path>
                                    <path d="M79.5312134,45.8215292 L0.437142094,0.665777159" id="Stroke-249" stroke="#CF0A1D" stroke-width="10.775"></path>
                                </g>
                                <path d="M396.954288,365.603903 L396.954288,273.731431 L396.954288,365.603903 Z" id="Fill-251" fill="#F5A4AD"></path>
                                <path d="M396.954376,365.604257 L396.954376,273.731785" id="Stroke-252" stroke="#CF0A1D" stroke-width="10.775"></path>
                                <polygon id="Fill-253" fill="#F5A4AD" points="633.878494 319.9283 554.784423 365.60408 475.690351 319.9283 475.690351 228.575856 554.784423 182.900076 633.878494 228.575856"></polygon>
                                <polygon id="Stroke-254" stroke="#CF0A1D" stroke-width="10.775" points="633.878494 319.9283 554.784423 365.60408 475.690351 319.9283 475.690351 228.575856 554.784423 182.900076 633.878494 228.575856"></polygon>
                                <g id="Group-257" transform="translate(554.385301, 227.910167)">
                                    <path d="M0.39903363,45.8215292 L79.4931049,0.665777159" id="Fill-255" fill="#F5A4AD"></path>
                                    <path d="M0.39903363,45.8215292 L79.4931049,0.665777159" id="Stroke-256" stroke="#CF0A1D" stroke-width="10.775"></path>
                                </g>
                                <g id="Group-260" transform="translate(474.808463, 227.910167)">
                                    <path d="M79.975871,45.8215292 L0.881799777,0.665777159" id="Fill-258" fill="#F5A4AD"></path>
                                    <path d="M79.975871,45.8215292 L0.881799777,0.665777159" id="Stroke-259" stroke="#CF0A1D" stroke-width="10.775"></path>
                                </g>
                                <path d="M554.7846,365.603903 L554.7846,273.731431 L554.7846,365.603903 Z" id="Fill-261" fill="#F5A4AD"></path>
                                <path d="M554.784334,365.604257 L554.784334,273.731785" id="Stroke-262" stroke="#CF0A1D" stroke-width="10.775"></path>
                                <polygon id="Fill-277" fill="#F5A4AD" points="159.645548 137.223942 80.5514768 182.899722 1.45740557 137.223942 1.45740557 45.8714979 80.5514768 0.195717967 159.645548 45.8714979"></polygon>
                                <polygon id="Stroke-278" stroke="#CF0A1D" stroke-width="10.775" points="159.645548 137.223942 80.5514768 182.899722 1.45740557 137.223942 1.45740557 45.8714979 80.5514768 0.195717967 159.645548 45.8714979"></polygon>
                                <g id="Group-282" transform="translate(80.461024, 45.723538)">
                                    <path d="M0.0903639198,45.3038893 L79.1844352,0.148137187" id="Fill-280" fill="#F5A4AD"></path>
                                    <path d="M0.0903639198,45.3038893 L79.1844352,0.148137187" id="Stroke-281" stroke="#CF0A1D" stroke-width="10.775"></path>
                                </g>
                                <path d="M80.5513884,91.0274269 L1.45731715,45.8716748" id="Fill-283" fill="#F5A4AD"></path>
                                <path d="M80.5513884,91.0274269 L1.45731715,45.8716748" id="Stroke-284" stroke="#CF0A1D" stroke-width="10.775"></path>
                                <path d="M80.5512116,182.899811 L80.5512116,91.0273384 L80.5512116,182.899811 Z" id="Fill-286" fill="#F5A4AD"></path>
                                <path d="M80.5513884,182.899987 L80.5513884,91.0275153" id="Stroke-287" stroke="#CF0A1D" stroke-width="10.775"></path>
                                <polygon id="Fill-288" fill="#F5A4AD" points="318.218577 137.223942 239.124506 182.899722 160.030435 137.223942 160.030435 45.8714979 239.124506 0.195717967 318.218577 45.8714979"></polygon>
                                <polygon id="Stroke-289" stroke="#CF0A1D" stroke-width="10.775" points="318.218577 137.223942 239.124506 182.899722 160.030435 137.223942 160.030435 45.8714979 239.124506 0.195717967 318.218577 45.8714979"></polygon>
                                <g id="Group-293" transform="translate(238.730512, 45.723538)">
                                    <path d="M0.393993764,45.3038893 L79.488065,0.148137187" id="Fill-291" fill="#F5A4AD"></path>
                                    <path d="M0.393993764,45.3038893 L79.488065,0.148137187" id="Stroke-292" stroke="#CF0A1D" stroke-width="10.775"></path>
                                </g>
                                <g id="Group-296" transform="translate(159.153675, 45.723538)">
                                    <path d="M79.9708312,45.3038893 L0.876759911,0.148137187" id="Fill-294" fill="#F5A4AD"></path>
                                    <path d="M79.9708312,45.3038893 L0.876759911,0.148137187" id="Stroke-295" stroke="#CF0A1D" stroke-width="10.775"></path>
                                </g>
                                <path d="M239.124771,182.899811 L239.124771,91.0273384 L239.124771,182.899811 Z" id="Fill-297" fill="#F5A4AD"></path>
                                <path d="M239.124506,182.899987 L239.124506,91.0275153" id="Stroke-298" stroke="#CF0A1D" stroke-width="10.775"></path>
                                <polygon id="Fill-299" fill="#F5A4AD" points="476.791695 137.223942 397.697624 182.899722 318.603552 137.223942 318.603552 45.8714979 397.697624 0.195717967 476.791695 45.8714979"></polygon>
                                <polygon id="Stroke-300" stroke="#CF0A1D" stroke-width="10.775" points="476.791695 137.223942 397.697624 182.899722 318.603552 137.223942 318.603552 45.8714979 397.697624 0.195717967 476.791695 45.8714979"></polygon>
                                <g id="Group-304" transform="translate(397.000000, 45.723538)">
                                    <path d="M0.697535189,45.3038893 L79.7916065,0.148137187" id="Fill-302" fill="#F5A4AD"></path>
                                    <path d="M0.697535189,45.3038893 L79.7916065,0.148137187" id="Stroke-303" stroke="#CF0A1D" stroke-width="10.775"></path>
                                </g>
                                <g id="Group-307" transform="translate(318.307350, 45.723538)">
                                    <path d="M79.3901855,45.3038893 L0.296114254,0.148137187" id="Fill-305" fill="#F5A4AD"></path>
                                    <path d="M79.3901855,45.3038893 L0.296114254,0.148137187" id="Stroke-306" stroke="#CF0A1D" stroke-width="10.775"></path>
                                </g>
                                <path d="M397.697535,182.899811 L397.697535,91.0273384 L397.697535,182.899811 Z" id="Fill-308" fill="#F5A4AD"></path>
                                <path d="M397.697535,182.899987 L397.697535,91.0275153" id="Stroke-309" stroke="#CF0A1D" stroke-width="10.775"></path>
                                <polygon id="Fill-310" fill="#F5A4AD" points="634.621565 137.223942 555.527494 182.899722 476.433422 137.223942 476.433422 45.8714979 555.527494 0.195717967 634.621565 45.8714979"></polygon>
                                <polygon id="Stroke-311" stroke="#CF0A1D" stroke-width="10.775" points="634.621565 137.223942 555.527494 182.899722 476.433422 137.223942 476.433422 45.8714979 555.527494 0.195717967 634.621565 45.8714979"></polygon>
                                <g id="Group-315" transform="translate(555.269488, 45.723538)">
                                    <path d="M0.258005791,45.3038893 L79.3520771,0.148137187" id="Fill-313" fill="#F5A4AD"></path>
                                    <path d="M0.258005791,45.3038893 L79.3520771,0.148137187" id="Stroke-314" stroke="#CF0A1D" stroke-width="10.775"></path>
                                </g>
                                <g id="Group-318" transform="translate(475.692650, 45.723538)">
                                    <path d="M79.8348432,45.3038893 L0.740771938,0.148137187" id="Fill-316" fill="#F5A4AD"></path>
                                    <path d="M79.8348432,45.3038893 L0.740771938,0.148137187" id="Stroke-317" stroke="#CF0A1D" stroke-width="10.775"></path>
                                </g>
                                <path d="M555.527847,182.899811 L555.527847,91.0273384 L555.527847,182.899811 Z" id="Fill-319" fill="#F5A4AD"></path>
                                <path d="M555.527494,182.899987 L555.527494,91.0275153" id="Stroke-320" stroke="#CF0A1D" stroke-width="10.775"></path>
                                <polygon id="Fill-335" fill="#F5A4AD" points="79.4366938 913.717154 158.530765 959.392934 158.530765 1050.74538 79.4366938 1096.42116 0.342622494 1050.74538 0.342622494 959.392934"></polygon>
                                <polyline id="Stroke-336" stroke="#CF0A1D" stroke-width="10.775" points="79.4366938 913.717154 158.530765 959.392934 158.530765 1050.74538 79.4366938 1096.42116 0.342622494 1050.74538 0.342622494 959.392934 79.4366938 913.717154"></polyline>
                                <g id="Group-340" transform="translate(78.692650, 959.309889)">
                                    <path d="M0.74404343,45.2389742 L79.8381147,0.0832221448" id="Fill-338" fill="#F5A4AD"></path>
                                    <path d="M0.74404343,45.2389742 L79.8381147,0.0832221448" id="Stroke-339" stroke="#CF0A1D" stroke-width="10.775"></path>
                                </g>
                                <path d="M79.4366938,1004.54886 L0.342622494,959.393111" id="Fill-341" fill="#F5A4AD"></path>
                                <path d="M79.4366938,1004.54886 L0.342622494,959.393111" id="Stroke-342" stroke="#CF0A1D" stroke-width="10.775"></path>
                                <path d="M79.4363401,1096.42107 L79.4363401,1004.5486 L79.4363401,1096.42107 Z" id="Fill-344" fill="#F5A4AD"></path>
                                <path d="M79.4366938,1096.42142 L79.4366938,1004.54895" id="Stroke-345" stroke="#CF0A1D" stroke-width="10.775"></path>
                                <polygon id="Fill-346" fill="#F5A4AD" points="238.009723 913.717154 317.103794 959.392934 317.103794 1050.74538 238.009723 1096.42116 158.915652 1050.74538 158.915652 959.392934"></polygon>
                                <polyline id="Stroke-347" stroke="#CF0A1D" stroke-width="10.775" points="238.009723 913.717154 317.103794 959.392934 317.103794 1050.74538 238.009723 1096.42116 158.915652 1050.74538 158.915652 959.392934 238.009723 913.717154"></polyline>
                                <g id="Group-350" transform="translate(237.846325, 959.309889)">
                                    <path d="M0.163397773,45.2389742 L79.257469,0.0832221448" id="Fill-348" fill="#F5A4AD"></path>
                                    <path d="M0.163397773,45.2389742 L79.257469,0.0832221448" id="Stroke-349" stroke="#CF0A1D" stroke-width="10.775"></path>
                                </g>
                                <g id="Group-353" transform="translate(158.269488, 959.309889)">
                                    <path d="M79.7402352,45.2389742 L0.64616392,0.0832221448" id="Fill-351" fill="#F5A4AD"></path>
                                    <path d="M79.7402352,45.2389742 L0.64616392,0.0832221448" id="Stroke-352" stroke="#CF0A1D" stroke-width="10.775"></path>
                                </g>
                                <path d="M238.0099,1096.42107 L238.0099,1004.5486 L238.0099,1096.42107 Z" id="Fill-354" fill="#F5A4AD"></path>
                                <path d="M238.009723,1096.42142 L238.009723,1004.54895" id="Stroke-355" stroke="#CF0A1D" stroke-width="10.775"></path>
                                <polygon id="Fill-356" fill="#F5A4AD" points="396.582841 913.717154 475.676912 959.392934 475.676912 1050.74538 396.582841 1096.42116 317.488769 1050.74538 317.488769 959.392934"></polygon>
                                <polyline id="Stroke-357" stroke="#CF0A1D" stroke-width="10.775" points="396.582841 913.717154 475.676912 959.392934 475.676912 1050.74538 396.582841 1096.42116 317.488769 1050.74538 317.488769 959.392934 396.582841 913.717154"></polyline>
                                <g id="Group-360" transform="translate(396.115813, 959.309889)">
                                    <path d="M0.467027617,45.2389742 L79.5610989,0.0832221448" id="Fill-358" fill="#F5A4AD"></path>
                                    <path d="M0.467027617,45.2389742 L79.5610989,0.0832221448" id="Stroke-359" stroke="#CF0A1D" stroke-width="10.775"></path>
                                </g>
                                <g id="Group-363" transform="translate(317.423163, 959.309889)">
                                    <path d="M79.159678,45.2389742 L0.0656066815,0.0832221448" id="Fill-361" fill="#F5A4AD"></path>
                                    <path d="M79.159678,45.2389742 L0.0656066815,0.0832221448" id="Stroke-362" stroke="#CF0A1D" stroke-width="10.775"></path>
                                </g>
                                <path d="M396.582664,1096.42107 L396.582664,1004.5486 L396.582664,1096.42107 Z" id="Fill-364" fill="#F5A4AD"></path>
                                <path d="M396.582841,1096.42142 L396.582841,1004.54895" id="Stroke-365" stroke="#CF0A1D" stroke-width="10.775"></path>
                                <polygon id="Fill-366" fill="#F5A4AD" points="554.412799 913.717154 633.50687 959.392934 633.50687 1050.74538 554.412799 1096.42116 475.318728 1050.74538 475.318728 959.392934"></polygon>
                                <polyline id="Stroke-367" stroke="#CF0A1D" stroke-width="10.775" points="554.412799 913.717154 633.50687 959.392934 633.50687 1050.74538 554.412799 1096.42116 475.318728 1050.74538 475.318728 959.392934 554.412799 913.717154"></polyline>
                                <g id="Group-370" transform="translate(554.385301, 959.309889)">
                                    <path d="M0.0274982183,45.2389742 L79.1215695,0.0832221448" id="Fill-368" fill="#F5A4AD"></path>
                                    <path d="M0.0274982183,45.2389742 L79.1215695,0.0832221448" id="Stroke-369" stroke="#CF0A1D" stroke-width="10.775"></path>
                                </g>
                                <g id="Group-373" transform="translate(474.808463, 959.309889)">
                                    <path d="M79.6043356,45.2389742 L0.510264365,0.0832221448" id="Fill-371" fill="#F5A4AD"></path>
                                    <path d="M79.6043356,45.2389742 L0.510264365,0.0832221448" id="Stroke-372" stroke="#CF0A1D" stroke-width="10.775"></path>
                                </g>
                                <path d="M554.412976,1096.42107 L554.412976,1004.5486 L554.412976,1096.42107 Z" id="Fill-374" fill="#F5A4AD"></path>
                                <path d="M554.412799,1096.42142 L554.412799,1004.54895" id="Stroke-375" stroke="#CF0A1D" stroke-width="10.775"></path>
                            </g>
                        </g>
                    </g>
                    <g id="Page-1" transform="translate(86.597734, 61.868911)">
                        <mask id="mask-2" fill="white">
                            <use xlink:href="#path-1"></use>
                        </mask>
                        <g id="Mask"></g>
                    </g>
                </g>
            </g>
        </g>
    </g>
</svg>