<?xml version="1.0" encoding="UTF-8"?>
<svg width="38px" height="38px" viewBox="0 0 38 38" version="1.1" xmlns="http://www.w3.org/2000/svg" xmlns:xlink="http://www.w3.org/1999/xlink">
    <!-- Generator: Sketch 41.2 (35397) - http://www.bohemiancoding.com/sketch -->
    <title>noun_929174</title>
    <desc>Created with Sketch.</desc>
    <defs></defs>
    <g id="Page-1" stroke="none" stroke-width="1" fill="none" fill-rule="evenodd">
        <g id="Page-Blog" transform="translate(-1124.000000, -43.000000)" stroke="#000000" stroke-width="2" fill="#000000">
            <g id="noun_929174" transform="translate(1125.000000, 44.000000)">
                <path d="M35.618087,33.9581739 L26.0651739,24.4052609 C28.3503913,21.7330435 29.5998261,18.3725217 29.5998261,14.8186957 C29.5998261,10.8704348 28.062,7.15891304 25.2704348,4.36734783 C22.4784783,1.5753913 18.7665652,0.0379565217 14.8186957,0.0379565217 C10.8704348,0.0379565217 7.15891304,1.57578261 4.36734783,4.36734783 C1.5753913,7.15891304 0.0379565217,10.8704348 0.0379565217,14.8186957 C0.0379565217,18.7669565 1.57578261,22.4784783 4.36734783,25.2704348 C7.15891304,28.0623913 10.8704348,29.5998261 14.8186957,29.5998261 C18.3725217,29.5998261 21.7326522,28.3503913 24.4052609,26.0651739 L33.9581739,35.618087 C34.1874783,35.8473913 34.488,35.9620435 34.7881304,35.9620435 C35.0882609,35.9620435 35.3887826,35.8473913 35.618087,35.618087 C36.0766957,35.1602609 36.0766957,34.4167826 35.618087,33.9581739 Z M14.8186957,27.2523913 C11.4976957,27.2523913 8.37547826,25.9587391 6.02726087,23.6105217 C3.67865217,21.261913 2.3853913,18.1396957 2.3853913,14.8186957 C2.3853913,11.4976957 3.67865217,8.37547826 6.02726087,6.02726087 C8.37547826,3.67904348 11.4973043,2.3853913 14.8186957,2.3853913 C18.1393043,2.3853913 21.261913,3.67904348 23.6105217,6.02765217 C25.9587391,8.37547826 27.2523913,11.4976957 27.2523913,14.8186957 C27.2523913,18.1396957 25.9587391,21.261913 23.6105217,23.6105217 C21.261913,25.9587391 18.1393043,27.2523913 14.8186957,27.2523913 Z" id="Shape"></path>
            </g>
        </g>
    </g>
</svg>