<svg xmlns="http://www.w3.org/2000/svg" width="29" height="50" viewBox="0 0 29 50">
  <path fill="#FFE800" d="M3.43166667,30.0137741 L6.69416667,30.0137741 L6.69416667,46.3085399 C6.70744737,48.1895159 8.23997386,49.7073469 10.1258333,49.7073003 L16.6025,49.7073003 C17.5126413,49.7137158 18.3880584,49.359232 19.0361578,48.7218359 C19.6842572,48.0844399 20.0519465,47.2163472 20.0583333,46.3085399 L20.0583333,30.0137741 L23.3208333,30.0137741 C24.7606985,29.8606682 26.002243,28.9365188 26.5591667,27.6033058 L28.7825,23.2403581 C28.7907415,23.1602194 28.7907415,23.07945 28.7825,22.9993113 C29.0417178,22.0307073 28.8557556,20.9972896 28.275,20.1790634 C27.6212994,19.35331 26.6231734,18.8733049 25.5683333,18.8774105 L20.0583333,18.8774105 L20.0583333,12.5137741 L25.5441667,12.5137741 C27.4301108,12.5272076 28.9734848,11.0200875 29,9.13911846 L29,3.69146006 C28.9867193,1.81048414 27.4541928,0.292653081 25.5683333,0.292699725 L18.85,0.292699725 C10.6816667,0.292699725 6.76666667,5.33057851 6.76666667,15.6955923 L6.76666667,18.8533058 L3.43166667,18.8533058 C1.5458072,18.8532591 0.0132806999,20.3710902 0,22.2520661 L0,26.6150138 C0.0132806999,28.4959897 1.5458072,30.0138207 3.43166667,30.0137741 L3.43166667,30.0137741 Z M2.41666667,22.2520661 C2.42979201,21.7023705 2.88040129,21.2636182 3.43166667,21.2637741 L7.9025,21.2637741 C8.56984407,21.2637741 9.11083333,20.7241724 9.11083333,20.0585399 L9.11083333,15.6955923 C9.11083333,6.58402204 12.0108333,2.70316804 18.7775,2.70316804 L25.4716667,2.70316804 C26.022932,2.70301217 26.4735413,3.14176443 26.4866667,3.69146006 L26.4866667,9.13911846 C26.4735413,9.68881408 26.022932,10.1275663 25.4716667,10.1274105 L18.85,10.1274105 C18.1826559,10.1274105 17.6416667,10.6670122 17.6416667,11.3326446 L17.6416667,20.1790634 C17.6416667,20.8446958 18.1826559,21.3842975 18.85,21.3842975 L25.5441667,21.3842975 C25.8628595,21.3803722 26.1657329,21.5225353 26.3658333,21.7699725 C26.5278431,21.9739406 26.5978427,22.2357658 26.5591667,22.4931129 L24.4083333,26.6873278 C24.0216667,27.3863636 23.5141667,27.7238292 23.2966667,27.7238292 L18.85,27.7238292 C18.1826559,27.7238292 17.6416667,28.2634309 17.6416667,28.9290634 L17.6416667,46.4290634 C17.635333,46.6975928 17.5222724,46.9526051 17.3273739,47.1379619 C17.1324754,47.3233187 16.8717163,47.423825 16.6025,47.4173554 L10.15,47.4173554 C9.59873462,47.4175112 9.14812534,46.978759 9.135,46.4290634 L9.135,28.8085399 C9.135,28.1429075 8.59401074,27.6033058 7.92666667,27.6033058 L3.43166667,27.6033058 C2.88040129,27.6034617 2.42979201,27.1647094 2.41666667,26.6150138 L2.41666667,22.2520661 Z"/>
</svg>
