<svg xmlns="http://www.w3.org/2000/svg" width="45" height="42" viewBox="0 0 45 42">
  <path fill="none" stroke="#D00A1D" stroke-width="2" d="M42.8343799,24.5423288 L42.8343799,39.9240333 L33.818397,39.9240333 L33.818397,25.5653564 C33.818397,21.9553006 32.5184148,19.501775 29.256104,19.501775 C26.7612251,19.501775 25.2895007,21.1629003 24.6325186,22.7615386 C24.3959663,23.3372363 24.3241212,24.1434743 24.3241212,24.9393558 L24.3241212,39.9222057 L15.31702,39.9222057 C15.31702,39.9222057 15.4379343,15.6125297 15.31702,13.0948637 L24.3259679,13.0948637 L24.3259679,16.8973409 C24.3137446,16.9285844 24.2874512,16.9545191 24.27514,16.9892437 L24.3259679,16.9892437 L24.3259679,16.8973409 C25.5295705,15.069816 27.6617945,12.4653819 32.4500872,12.4653819 C38.3930012,12.465469 42.8343799,16.2991897 42.8343799,24.5423288 Z M5.88579559,0.159809448 C2.80402083,0.159809448 0.785676014,2.16078347 0.785676014,4.79985515 C0.785676014,7.36782402 2.74448705,9.43641969 5.77015759,9.43641969 L5.82450305,9.43641969 C8.97460536,9.43641969 10.9263814,7.36782402 10.9263814,4.79985515 C10.8650888,2.16078347 8.9746933,0.159809448 5.88579559,0.159809448 Z M1.32359059,39.9239463 L10.3342972,39.9239463 L10.3342972,13.0932101 L1.32359059,13.0932101 L1.32359059,39.9239463 Z" transform="translate(1 1)"/>
</svg>
