<svg xmlns="http://www.w3.org/2000/svg" width="43" height="35" viewBox="0 0 43 35">
  <path fill="#D00A1D" d="M15.9073835,35 C8.02594455,35 1.58809881,31.215372 1.48291407,31.1519915 C0.866639353,30.7804735 0.59626062,30.0279981 0.832926294,29.3483428 C1.07161475,28.6707103 1.74587593,28.2418802 2.46868391,28.3490877 C6.73743144,28.9201869 9.71024898,27.5750359 11.3028539,26.511726 C7.35572894,23.5207034 -1.47978955,15.080302 3.94059607,2.56601451 C4.16377652,2.0502047 4.65598718,1.69891463 5.2149497,1.65508765 C5.76244977,1.61732903 6.31534394,1.88231367 6.61539017,2.35631928 C6.77721285,2.60916722 10.5780231,8.32757628 20.0776889,9.52506413 C20.0992652,4.34538976 24.3187917,0.138 29.5004888,0.138 C31.8118562,0.138 33.990394,0.96734125 35.7151541,2.49049725 C38.2078977,2.22551261 40.1713463,2.16820041 40.2623715,2.1648291 C40.4680212,2.16685189 40.6635569,2.1944966 40.8408876,2.26192271 C41.1746469,2.13920718 41.5502104,2.12976752 41.9116144,2.2639455 C42.6937573,2.55994616 43.0888744,3.43513717 42.7928737,4.21728013 C42.5022672,4.98796066 41.1058723,8.50558123 39.2058043,10.3051843 C39.6798099,14.6804651 38.5935751,21.1122425 31.5785618,28.3362768 C26.6200451,33.4411082 20.9663651,35 15.9073835,35 Z M5.27254761,30.9174604 C12.8121243,34.29659 22.5491058,34.0080417 29.7311673,26.61522 C36.6615852,19.4775662 37.3573055,13.3958285 36.7215003,9.55280179 C36.6164726,8.91276726 36.9118189,8.27273274 37.4672674,7.93579826 C38.1820196,7.506524 39.0596,6.12706633 39.7799913,4.70179121 C38.8178248,4.75959169 37.4461209,4.86320961 35.9595209,5.03872569 C35.4724461,5.08806755 34.9783226,4.92312474 34.6336344,4.56574863 C33.35568,3.24409143 31.6498611,2.5173562 29.8340803,2.5173562 C26.1517671,2.5173562 23.1553059,5.51593204 23.1553059,9.19965498 C23.1553059,9.68109065 23.2025332,10.1413798 23.2998071,10.5664247 C23.4069495,11.0534995 23.2814801,11.5617207 22.9593482,11.9416531 C22.6351017,12.3215855 22.1437976,12.5281165 21.656018,12.4971016 C12.899951,11.9684387 7.67746661,8.16065621 5.13354084,5.62659881 C1.64366096,17.9613611 13.676733,25.1067686 14.2237228,25.4246712 C14.6346701,25.662217 14.9194432,26.075279 14.9962755,26.5440267 C15.0702883,27.0148891 14.9321311,27.4942101 14.6163431,27.8508813 C14.4866445,28.0003167 9.41514992,29.773434 5.27254761,30.9174604 Z"/>
</svg>
