<svg xmlns="http://www.w3.org/2000/svg" width="730" height="592" viewBox="0 0 730 592">
  <g fill="none" fill-rule="evenodd" stroke="#009BD0" stroke-width="12" transform="translate(6 6)">
    <path d="M308.148904 424.354596C308.148904 510.260628 239.209659 579.901627 154.168181 579.901627 69.1267043 579.901627.187458554 510.260628.187458554 424.354596.187458554 338.448563 69.1267043 268.807565 154.168181 268.807565 239.209659 268.807565 308.148904 338.448563 308.148904 424.354596zM717.477331 156.407811C717.477331 242.313844 648.538085 311.954842 563.496608 311.954842 478.455131 311.954842 409.515885 242.313844 409.515885 156.407811 409.515885 70.5017782 478.455131.860779987 563.496608.860779987 648.538085.860779987 717.477331 70.5017782 717.477331 156.407811zM47.731948 311.954842L457.060288 44.0077981M679.916588 258.21559L246.818988 548.598564"/>
  </g>
</svg>
