<svg xmlns="http://www.w3.org/2000/svg" xmlns:xlink="http://www.w3.org/1999/xlink" width="526" height="440" viewBox="0 0 526 440">
  <defs>
    <path id="hoverred-a" d="M20.8842712,45.1358666 C16.1430667,46.3335979 12.0242562,49.2484621 10.308899,53.828075 C-71.4236081,272.051338 358.841595,481.20949 386.418714,433.010795 C415.895866,381.491481 573.109416,46.8574389 511.11861,11.9749584 C447.611329,-23.7607613 78.9498215,30.4638805 20.8842712,45.1358666"/>
  </defs>
  <g fill="none" fill-rule="evenodd">
    <mask id="hoverred-b" fill="#fff">
      <use xlink:href="#hoverred-a"/>
    </mask>
    <use fill="#CF0A1D" xlink:href="#hoverred-a"/>
    <g mask="url(#hoverred-b)">
      <g transform="translate(-85 -344)">
        <polygon fill="#CF0A1D" points="94.669 907.924 591.423 907.924 591.423 58.816 94.669 58.816"/>
        <polygon fill="#F5A4AD" points="141.952 771.668 71.624 812.273 1.296 771.668 1.296 690.458 71.624 649.853 141.952 690.458"/>
        <polygon stroke="#CF0A1D" stroke-width="10.775" points="141.952 771.668 71.624 812.273 1.296 771.668 1.296 690.458 71.624 649.853 141.952 690.458"/>
        <g transform="translate(71.543 690.058)">
          <path fill="#F5A4AD" d="M0.0803487751,40.5424214 L70.4083265,0.400024513"/>
          <path stroke="#CF0A1D" stroke-width="10.775" d="M0.0803487751,40.5424214 L70.4083265,0.400024513"/>
        </g>
        <polygon fill="#F5A4AD" points="282.95 771.668 212.622 812.273 142.294 771.668 142.294 690.458 212.622 649.853 282.95 690.458"/>
        <polygon stroke="#CF0A1D" stroke-width="10.775" points="282.95 771.668 212.622 812.273 142.294 771.668 142.294 690.458 212.622 649.853 282.95 690.458"/>
        <g transform="translate(212.272 690.058)">
          <path fill="#F5A4AD" d="M0.350326949,40.5424214 L70.6783047,0.400024513"/>
          <path stroke="#CF0A1D" stroke-width="10.775" d="M0.350326949,40.5424214 L70.6783047,0.400024513"/>
        </g>
        <g transform="translate(141.514 690.058)">
          <path fill="#F5A4AD" d="M71.1075653,40.5424214 L0.779587528,0.400024513"/>
          <path stroke="#CF0A1D" stroke-width="10.775" d="M71.1075653,40.5424214 L0.779587528,0.400024513"/>
        </g>
        <path fill="#F5A4AD" d="M212.622278,812.272809 L212.622278,730.600351 L212.622278,812.272809 Z"/>
        <path stroke="#CF0A1D" stroke-width="10.775" d="M212.622042,812.272966 L212.622042,730.600508"/>
        <polygon fill="#F5A4AD" points="423.948 771.668 353.62 812.273 283.292 771.668 283.292 690.458 353.62 649.853 423.948 690.458"/>
        <polygon stroke="#CF0A1D" stroke-width="10.775" points="423.948 771.668 353.62 812.273 283.292 771.668 283.292 690.458 353.62 649.853 423.948 690.458"/>
        <g transform="translate(353 690.058)">
          <path fill="#F5A4AD" d="M0.620226503,40.5424214 L70.9482042,0.400024513"/>
          <path stroke="#CF0A1D" stroke-width="10.775" d="M0.620226503,40.5424214 L70.9482042,0.400024513"/>
        </g>
        <g transform="translate(283.029 690.058)">
          <path fill="#F5A4AD" d="M70.5912733,40.5424214 L0.263295546,0.400024513"/>
          <path stroke="#CF0A1D" stroke-width="10.775" d="M70.5912733,40.5424214 L0.263295546,0.400024513"/>
        </g>
        <path fill="#F5A4AD" d="M353.620227,812.272809 L353.620227,730.600351 L353.620227,812.272809 Z"/>
        <path stroke="#CF0A1D" stroke-width="10.775" d="M353.620227,812.272966 L353.620227,730.600508"/>
        <polygon fill="#F5A4AD" points="564.286 771.668 493.958 812.273 423.63 771.668 423.63 690.458 493.958 649.853 564.286 690.458"/>
        <polygon stroke="#CF0A1D" stroke-width="10.775" points="564.286 771.668 493.958 812.273 423.63 771.668 423.63 690.458 493.958 649.853 564.286 690.458"/>
        <g transform="translate(493.728 690.058)">
          <path fill="#F5A4AD" d="M0.22941069,40.5424214 L70.5573884,0.400024513"/>
          <path stroke="#CF0A1D" stroke-width="10.775" d="M0.22941069,40.5424214 L70.5573884,0.400024513"/>
        </g>
        <g transform="translate(422.971 690.058)">
          <path fill="#F5A4AD" d="M70.986649,40.5424214 L0.658671269,0.400024513"/>
          <path stroke="#CF0A1D" stroke-width="10.775" d="M70.986649,40.5424214 L0.658671269,0.400024513"/>
        </g>
        <path fill="#F5A4AD" d="M493.95801,812.272809 L493.95801,730.600351 L493.95801,812.272809 Z"/>
        <path stroke="#CF0A1D" stroke-width="10.775" d="M493.957696,812.272966 L493.957696,730.600508"/>
        <polygon fill="#F5A4AD" points="704.623 771.668 634.295 812.273 563.967 771.668 563.967 690.458 634.295 649.853 704.623 690.458"/>
        <polygon stroke="#CF0A1D" stroke-width="10.775" points="704.623 771.668 634.295 812.273 563.967 771.668 563.967 690.458 634.295 649.853 704.623 690.458"/>
        <g transform="translate(563.7 690.058)">
          <path fill="#F5A4AD" d="M70.5958332,40.5424214 L0.267855457,0.400024513"/>
          <path stroke="#CF0A1D" stroke-width="10.775" d="M70.5958332,40.5424214 L0.267855457,0.400024513"/>
        </g>
        <polygon fill="#F5A4AD" points="141.621 609.248 71.293 649.853 .966 609.248 .966 528.038 71.293 487.433 141.621 528.038"/>
        <polygon stroke="#CF0A1D" stroke-width="10.775" points="141.621 609.248 71.293 649.853 .966 609.248 .966 528.038 71.293 487.433 141.621 528.038"/>
        <g transform="translate(70.757 527.312)">
          <path fill="#F5A4AD" d="M0.536182628,40.8683848 L70.8641604,0.725987883"/>
          <path stroke="#CF0A1D" stroke-width="10.775" d="M0.536182628,40.8683848 L70.8641604,0.725987883"/>
        </g>
        <polygon fill="#F5A4AD" points="282.62 609.248 212.292 649.853 141.964 609.248 141.964 528.038 212.292 487.433 282.62 528.038"/>
        <polygon stroke="#CF0A1D" stroke-width="10.775" points="282.62 609.248 212.292 649.853 141.964 609.248 141.964 528.038 212.292 487.433 282.62 528.038"/>
        <g transform="translate(212.272 527.312)">
          <path fill="#F5A4AD" d="M0.019969265,40.8683848 L70.347947,0.725987883"/>
          <path stroke="#CF0A1D" stroke-width="10.775" d="M0.019969265,40.8683848 L70.347947,0.725987883"/>
        </g>
        <g transform="translate(141.514 527.312)">
          <path fill="#F5A4AD" d="M70.7772076,40.8683848 L0.449229844,0.725987883"/>
          <path stroke="#CF0A1D" stroke-width="10.775" d="M70.7772076,40.8683848 L0.449229844,0.725987883"/>
        </g>
        <path fill="#F5A4AD" d="M212.291841,649.853186 L212.291841,568.180729 L212.291841,649.853186 Z"/>
        <path stroke="#CF0A1D" stroke-width="10.775" d="M212.291684,649.853108 L212.291684,568.18065"/>
        <polygon fill="#F5A4AD" points="423.618 609.248 353.29 649.853 282.962 609.248 282.962 528.038 353.29 487.433 423.618 528.038"/>
        <polygon stroke="#CF0A1D" stroke-width="10.775" points="423.618 609.248 353.29 649.853 282.962 609.248 282.962 528.038 353.29 487.433 423.618 528.038"/>
        <g transform="translate(353 527.312)">
          <path fill="#F5A4AD" d="M0.28986882,40.8683848 L70.6178465,0.725987883"/>
          <path stroke="#CF0A1D" stroke-width="10.775" d="M0.28986882,40.8683848 L70.6178465,0.725987883"/>
        </g>
        <g transform="translate(282.243 527.312)">
          <path fill="#F5A4AD" d="M71.0471071,40.8683848 L0.719129399,0.725987883"/>
          <path stroke="#CF0A1D" stroke-width="10.775" d="M71.0471071,40.8683848 L0.719129399,0.725987883"/>
        </g>
        <path fill="#F5A4AD" d="M353.28979,649.853186 L353.28979,568.180729 L353.28979,649.853186 Z"/>
        <path stroke="#CF0A1D" stroke-width="10.775" d="M353.289869,649.853108 L353.289869,568.18065"/>
        <polygon fill="#F5A4AD" points="563.955 609.248 493.627 649.853 423.299 609.248 423.299 528.038 493.627 487.433 563.955 528.038"/>
        <polygon stroke="#CF0A1D" stroke-width="10.775" points="563.955 609.248 493.627 649.853 423.299 609.248 423.299 528.038 493.627 487.433 563.955 528.038"/>
        <g transform="translate(492.942 527.312)">
          <path fill="#F5A4AD" d="M0.685244543,40.8683848 L71.0132223,0.725987883"/>
          <path stroke="#CF0A1D" stroke-width="10.775" d="M0.685244543,40.8683848 L71.0132223,0.725987883"/>
        </g>
        <g transform="translate(422.971 527.312)">
          <path fill="#F5A4AD" d="M70.6562913,40.8683848 L0.328313586,0.725987883"/>
          <path stroke="#CF0A1D" stroke-width="10.775" d="M70.6562913,40.8683848 L0.328313586,0.725987883"/>
        </g>
        <path fill="#F5A4AD" d="M493.627574,649.853186 L493.627574,568.180729 L493.627574,649.853186 Z"/>
        <path stroke="#CF0A1D" stroke-width="10.775" d="M493.627338,649.853108 L493.627338,568.18065"/>
        <polygon fill="#F5A4AD" points="704.293 609.248 633.965 649.853 563.637 609.248 563.637 528.038 633.965 487.433 704.293 528.038"/>
        <polygon stroke="#CF0A1D" stroke-width="10.775" points="704.293 609.248 633.965 649.853 563.637 609.248 563.637 528.038 633.965 487.433 704.293 528.038"/>
        <g transform="translate(562.913 527.312)">
          <path fill="#F5A4AD" d="M71.051667,40.8683848 L0.72368931,0.725987883"/>
          <path stroke="#CF0A1D" stroke-width="10.775" d="M71.051667,40.8683848 L0.72368931,0.725987883"/>
        </g>
        <polygon fill="#F5A4AD" points="141.621 446.828 71.293 487.433 .965 446.828 .965 365.618 71.293 325.014 141.621 365.618"/>
        <polygon stroke="#CF0A1D" stroke-width="10.775" points="141.621 446.828 71.293 487.433 .965 446.828 .965 365.618 71.293 325.014 141.621 365.618"/>
        <g transform="translate(70.757 365.353)">
          <path fill="#F5A4AD" d="M0.536182628,40.4082151 L70.8641604,0.265818175"/>
          <path stroke="#CF0A1D" stroke-width="10.775" d="M0.536182628,40.4082151 L70.8641604,0.265818175"/>
        </g>
        <polygon fill="#F5A4AD" points="282.62 446.828 212.292 487.433 141.964 446.828 141.964 365.618 212.292 325.014 282.62 365.618"/>
        <polygon stroke="#CF0A1D" stroke-width="10.775" points="282.62 446.828 212.292 487.433 141.964 446.828 141.964 365.618 212.292 325.014 282.62 365.618"/>
        <g transform="translate(212.272 365.353)">
          <path fill="#F5A4AD" d="M0.0198906459,40.4082151 L70.3478684,0.265818175"/>
          <path stroke="#CF0A1D" stroke-width="10.775" d="M0.0198906459,40.4082151 L70.3478684,0.265818175"/>
        </g>
        <g transform="translate(141.514 365.353)">
          <path fill="#F5A4AD" d="M70.777129,40.4082151 L0.449151225,0.265818175"/>
          <path stroke="#CF0A1D" stroke-width="10.775" d="M70.777129,40.4082151 L0.449151225,0.265818175"/>
        </g>
        <path fill="#F5A4AD" d="M212.291841,487.433564 L212.291841,405.76032 L212.291841,487.433564 Z"/>
        <path stroke="#CF0A1D" stroke-width="10.775" d="M212.291606,487.433328 L212.291606,405.76087"/>
        <polygon fill="#F5A4AD" points="423.618 446.828 353.29 487.433 282.962 446.828 282.962 365.618 353.29 325.014 423.618 365.618"/>
        <polygon stroke="#CF0A1D" stroke-width="10.775" points="423.618 446.828 353.29 487.433 282.962 446.828 282.962 365.618 353.29 325.014 423.618 365.618"/>
        <g transform="translate(353 365.353)">
          <path fill="#F5A4AD" d="M0.28986882,40.4082151 L70.6178465,0.265818175"/>
          <path stroke="#CF0A1D" stroke-width="10.775" d="M0.28986882,40.4082151 L70.6178465,0.265818175"/>
        </g>
        <g transform="translate(282.243 365.353)">
          <path fill="#F5A4AD" d="M71.0471071,40.4082151 L0.719129399,0.265818175"/>
          <path stroke="#CF0A1D" stroke-width="10.775" d="M71.0471071,40.4082151 L0.719129399,0.265818175"/>
        </g>
        <path fill="#F5A4AD" d="M353.28979,487.433564 L353.28979,405.76032 L353.28979,487.433564 Z"/>
        <path stroke="#CF0A1D" stroke-width="10.775" d="M353.289869,487.433328 L353.289869,405.76087"/>
        <polygon fill="#F5A4AD" points="563.955 446.828 493.627 487.433 423.299 446.828 423.299 365.618 493.627 325.014 563.955 365.618"/>
        <polygon stroke="#CF0A1D" stroke-width="10.775" points="563.955 446.828 493.627 487.433 423.299 446.828 423.299 365.618 493.627 325.014 563.955 365.618"/>
        <g transform="translate(492.942 365.353)">
          <path fill="#F5A4AD" d="M0.685244543,40.4082151 L71.0132223,0.265818175"/>
          <path stroke="#CF0A1D" stroke-width="10.775" d="M0.685244543,40.4082151 L71.0132223,0.265818175"/>
        </g>
        <g transform="translate(422.971 365.353)">
          <path fill="#F5A4AD" d="M70.6562913,40.4082151 L0.328313586,0.265818175"/>
          <path stroke="#CF0A1D" stroke-width="10.775" d="M70.6562913,40.4082151 L0.328313586,0.265818175"/>
        </g>
        <path fill="#F5A4AD" d="M493.627574,487.433564 L493.627574,405.76032 L493.627574,487.433564 Z"/>
        <path stroke="#CF0A1D" stroke-width="10.775" d="M493.627338,487.433328 L493.627338,405.76087"/>
        <polygon fill="#F5A4AD" points="704.293 446.828 633.965 487.433 563.637 446.828 563.637 365.618 633.965 325.014 704.293 365.618"/>
        <polygon stroke="#CF0A1D" stroke-width="10.775" points="704.293 446.828 633.965 487.433 563.637 446.828 563.637 365.618 633.965 325.014 704.293 365.618"/>
        <g transform="translate(562.913 365.353)">
          <path fill="#F5A4AD" d="M71.051667,40.4082151 L0.72368931,0.265818175"/>
          <path stroke="#CF0A1D" stroke-width="10.775" d="M71.051667,40.4082151 L0.72368931,0.265818175"/>
        </g>
      </g>
    </g>
  </g>
</svg>
