<?xml version="1.0" encoding="utf-8"?>
<!-- Generator: Adobe Illustrator 18.1.0, SVG Export Plug-In . SVG Version: 6.00 Build 0)  -->
<svg version="1.1" id="Layer_1" xmlns="http://www.w3.org/2000/svg" xmlns:xlink="http://www.w3.org/1999/xlink" x="0px" y="0px"
	 viewBox="0 0 500 500" enable-background="new 0 0 500 500" xml:space="preserve">
<path fill="none" stroke="#009ACD" stroke-width="5.8603" stroke-miterlimit="10" d="M214.6,312.8"/>
<linearGradient id="SVGID_1_" gradientUnits="userSpaceOnUse" x1="214.534" y1="312.8413" x2="35.8897" y2="312.8413">
	<stop  offset="0" style="stop-color:#009ACD"/>
	<stop  offset="0.4281" style="stop-color:#009ACD"/>
	<stop  offset="1" style="stop-color:#009ACD;stop-opacity:0.6"/>
</linearGradient>
<ellipse fill="url(#SVGID_1_)" cx="125.2" cy="312.8" rx="89.3" ry="90.3"/>
<linearGradient id="SVGID_2_" gradientUnits="userSpaceOnUse" x1="237.1716" y1="126.6396" x2="334.8593" y2="295.8398">
	<stop  offset="0" style="stop-color:#009ACD"/>
	<stop  offset="0.256" style="stop-color:#009ACD"/>
	<stop  offset="1" style="stop-color:#009ACD;stop-opacity:0.6"/>
</linearGradient>
<linearGradient id="SVGID_3_" gradientUnits="userSpaceOnUse" x1="461.1438" y1="226.8807" x2="80.7467" y2="226.8807">
	<stop  offset="0.2054" style="stop-color:#4E81BD"/>
	<stop  offset="1" style="stop-color:#4E81BD;stop-opacity:0"/>
</linearGradient>
<path fill="url(#SVGID_2_)" stroke="url(#SVGID_3_)" stroke-width="0.4914" stroke-miterlimit="10" d="M374,60.8
	c-19.7,0-37.8,6.7-52.4,18L82.8,233.6c0,0,26.4-10,43.2-9.5c48,1.5,85.3,40.7,86.9,89c0.9,26-16.6,64.4-46.4,79.8l247.8-164.2
	c4.4-2.4,8.6-5.1,12.5-8.2l0,0c20.7-16.3,34.1-41.9,34.1-70.7C460.9,100.7,422,60.8,374,60.8z"/>
<linearGradient id="SVGID_4_" gradientUnits="userSpaceOnUse" x1="237.1716" y1="126.6396" x2="334.8593" y2="295.8398">
	<stop  offset="0" style="stop-color:#009ACD"/>
	<stop  offset="0.256" style="stop-color:#009ACD"/>
	<stop  offset="1" style="stop-color:#009ACD;stop-opacity:0.6"/>
</linearGradient>
<linearGradient id="SVGID_5_" gradientUnits="userSpaceOnUse" x1="461.1438" y1="226.8807" x2="80.7467" y2="226.8807">
	<stop  offset="0.2054" style="stop-color:#4E81BD"/>
	<stop  offset="1" style="stop-color:#4E81BD;stop-opacity:0"/>
</linearGradient>
<path fill="url(#SVGID_4_)" stroke="url(#SVGID_5_)" stroke-width="0.4914" stroke-miterlimit="10" d="M374,60.8
	c-19.7,0-37.8,6.7-52.4,18L82.8,233.6c0,0,26.4-10,43.2-9.5c48,1.5,85.3,40.7,86.9,89c0.9,26-16.6,64.4-46.4,79.8l247.8-164.2
	c4.4-2.4,8.6-5.1,12.5-8.2l0,0c20.7-16.3,34.1-41.9,34.1-70.7C460.9,100.7,422,60.8,374,60.8z"/>
</svg>
