<svg xmlns="http://www.w3.org/2000/svg" width="730" height="592" viewBox="0 0 730 592">
  <g fill="none" fill-rule="evenodd" stroke="#009BD0" stroke-width="12" transform="translate(6 6)">
    <path d="M717.477331 156.269547C717.477331 242.17558 648.538085 311.816578 563.496608 311.816578 478.455131 311.816578 409.515885 242.17558 409.515885 156.269547 409.515885 70.3635142 478.455131.722515959 563.496608.722515959 648.538085.722515959 717.477331 70.3635142 717.477331 156.269547zM308.148904 424.216332C308.148904 510.122364 239.209659 579.763363 154.168181 579.763363 69.1267043 579.763363.187458554 510.122364.187458554 424.216332.187458554 338.310299 69.1267043 268.669301 154.168181 268.669301 239.209659 268.669301 308.148904 338.310299 308.148904 424.216332zM.187372048 424.216332L409.515712 156.269288M154.168181 268.669301L563.496521.722256714M15.4913258 491.895795L426.003068 226.354546M457.060374 268.669301L51.128261 539.797281M107.662024 571.561109L511.256744 302.689424M47.731948 311.816578L457.060288 43.8695341M633.103161 17.4916957L220.74711 279.837318M690.939964 68.9522706L281.384979 335.813078M717.477331 156.269547L308.148991 424.216591M154.168181 579.763363L563.496521 311.816319M679.916588 258.077326L246.818988 548.4603"/>
  </g>
</svg>
